<svg width="40" height="40" viewBox="0 0 40 40" fill="none" xmlns="http://www.w3.org/2000/svg">
<rect width="40" height="40" rx="20" fill="#D3EFF8"/>
<rect x="5.8252" y="22.5244" width="28.3495" height="7.96117" fill="#006EDF"/>
<rect x="5.8252" y="21.7476" width="28.3495" height="3.1068" fill="#031D43"/>
<rect x="13.9805" y="23.6895" width="12.0388" height="6.79612" fill="#89D0FE"/>
<rect x="13.9805" y="25.8252" width="12.0388" height="0.38835" fill="#031D43"/>
<rect x="13.9805" y="23.4951" width="12.0388" height="0.38835" fill="#031D43"/>
<rect x="13.9805" y="23.4951" width="0.38835" height="6.99029" fill="#031D43"/>
<rect x="19.8057" y="23.4951" width="0.388348" height="6.99029" fill="#031D43"/>
<rect x="16.9102" y="23.479" width="0.488831" height="7.00659" fill="#031D43"/>
<rect x="22.9126" y="23.4951" width="0.38835" height="6.99029" fill="#031D43"/>
<rect x="12.2329" y="21.7476" width="15.7282" height="0.776699" fill="#FFC120"/>
<rect x="25.6311" y="23.6895" width="0.38835" height="6.79612" fill="#031D43"/>
<path fill-rule="evenodd" clip-rule="evenodd" d="M5.24268 13.2244L12.0681 13.2612L20.1854 7.18457L28.5451 13.2612L34.7572 13.2244V21.7477H5.24268V13.2244Z" fill="#006EDF"/>
<path fill-rule="evenodd" clip-rule="evenodd" d="M21.6018 19.2813C21.6018 19.3162 21.5986 19.3522 21.5891 19.3838C21.55 19.5152 21.4155 19.6262 21.2471 19.6262C21.1069 19.6262 20.9953 19.5456 20.9953 19.3754C20.9953 19.115 21.279 19.043 21.6018 19.0447V19.2813ZM22.1081 18.8276C22.1081 18.3981 21.9267 18.02 21.3134 18.02C20.9983 18.02 20.7486 18.1095 20.6121 18.1891L20.7121 18.5343C20.8367 18.4549 21.0352 18.3892 21.2232 18.3892C21.5343 18.3883 21.5854 18.5672 21.5854 18.6818V18.7088C20.9071 18.7078 20.4785 18.9452 20.4785 19.4288C20.4785 19.7243 20.6969 20.0011 21.0763 20.0011C21.3095 20.0011 21.5048 19.9068 21.6218 19.756H21.6332C21.6332 19.756 21.7108 20.0836 22.1378 19.9583C22.1151 19.822 22.1081 19.6766 22.1081 19.5015V18.8276Z" fill="white"/>
<path fill-rule="evenodd" clip-rule="evenodd" d="M11.5427 17.4355C11.5427 17.4355 11.9857 19.2713 12.0564 19.5692C12.1389 19.9169 12.2877 20.045 12.7165 19.9585L12.9931 18.8205C13.0634 18.5377 13.1103 18.3362 13.1554 18.0487H13.1632C13.195 18.3391 13.2401 18.5387 13.2978 18.8215C13.2978 18.8215 13.4103 19.338 13.4681 19.6094C13.5259 19.8807 13.6868 20.0516 14.1068 19.9585L14.7662 17.4355H14.2339L14.0088 18.5263C13.9482 18.8438 13.8932 19.0921 13.851 19.3825H13.8434C13.805 19.0949 13.756 18.8566 13.6944 18.5472L13.4602 17.4355H12.9057L12.6548 18.5193C12.584 18.8486 12.5174 19.1144 12.4753 19.3951H12.4676C12.4243 19.1308 12.3666 18.7966 12.3043 18.4779C12.3043 18.4779 12.1555 17.7027 12.1031 17.4355H11.5427Z" fill="white"/>
<path fill-rule="evenodd" clip-rule="evenodd" d="M15.7725 19.2813C15.7725 19.3162 15.7695 19.3522 15.7599 19.3838C15.7206 19.5152 15.586 19.6262 15.418 19.6262C15.2776 19.6262 15.1662 19.5456 15.1662 19.3754C15.1662 19.115 15.4498 19.043 15.7725 19.0447V19.2813ZM16.2786 18.8276C16.2786 18.3981 16.0972 18.02 15.4842 18.02C15.1692 18.02 14.9192 18.1095 14.7829 18.1891L14.8826 18.5343C15.0073 18.4549 15.2059 18.3892 15.394 18.3892C15.7052 18.3883 15.7561 18.5672 15.7561 18.6818V18.7088C15.0779 18.7078 14.6494 18.9452 14.6494 19.4288C14.6494 19.7243 14.8675 20.0011 15.2466 20.0011C15.4802 20.0011 15.6753 19.9068 15.7924 19.756H15.804C15.804 19.756 15.8813 20.0836 16.3083 19.9583C16.286 19.822 16.2786 19.6766 16.2786 19.5015V18.8276Z" fill="white"/>
<path fill-rule="evenodd" clip-rule="evenodd" d="M17.1236 19.4229V17.4355H16.6167V19.9585H17.1236V19.4229Z" fill="white"/>
<path fill-rule="evenodd" clip-rule="evenodd" d="M23.7542 17.4355V19.2969C23.7542 19.5535 23.8019 19.7333 23.9041 19.8431C23.9933 19.9392 24.1405 20.0013 24.3166 20.0013C24.4664 20.0013 24.6139 19.9726 24.6835 19.9464L24.677 19.546C24.6252 19.5588 24.5657 19.5692 24.4844 19.5692C24.3118 19.5692 24.254 19.4573 24.254 19.227V18.5149H24.6953V18.0322H24.254V17.4355H23.7542Z" fill="white"/>
<path fill-rule="evenodd" clip-rule="evenodd" d="M22.446 18.0629V19.9583H22.9689V18.9878C22.9689 18.9354 22.9719 18.8898 22.98 18.8479C23.0187 18.6446 23.1726 18.5147 23.3934 18.5147C23.4538 18.5147 23.4974 18.5212 23.5443 18.5282V18.0319C23.505 18.0239 23.4779 18.02 23.429 18.02C23.2339 18.02 23.012 18.1474 22.9188 18.4206H22.9046V18.0629H22.446Z" fill="white"/>
<path fill-rule="evenodd" clip-rule="evenodd" d="M17.4785 18.0629V19.9583H17.988V18.8466C17.988 18.7947 17.9941 18.7395 18.0121 18.6916C18.0541 18.5797 18.157 18.4489 18.3215 18.4489C18.5271 18.4489 18.6233 18.6244 18.6233 18.8781V19.9583H19.132V18.8333C19.132 18.7835 19.1389 18.7236 19.1535 18.6796C19.1953 18.5524 19.3063 18.4489 19.4591 18.4489C19.6676 18.4489 19.7676 18.6214 19.7676 18.9197V19.9583H20.2767V18.8419C20.2767 18.2533 19.9812 18.02 19.6475 18.02C19.4994 18.02 19.3828 18.0576 19.2774 18.123C19.1888 18.1781 19.1094 18.2561 19.0399 18.3591H19.0324C18.9518 18.155 18.7624 18.02 18.5158 18.02C18.1989 18.02 18.0562 18.1826 17.9697 18.3205H17.9621V18.0629H17.4785Z" fill="white"/>
<path fill-rule="evenodd" clip-rule="evenodd" d="M27.5564 19.5323C27.5456 19.4637 27.4633 19.4102 27.3614 19.4102C27.2606 19.4102 27.1776 19.4634 27.1661 19.5316L27.0669 20.6701C27.0669 20.7826 27.1971 20.8753 27.361 20.8753C27.5263 20.8753 27.6564 20.7826 27.6564 20.6701L27.5564 19.5323Z" fill="#FFC300"/>
<path fill-rule="evenodd" clip-rule="evenodd" d="M26.7479 19.282C26.8013 19.2383 26.8058 19.1393 26.7548 19.05C26.7044 18.9618 26.6177 18.9158 26.5534 18.94L25.5282 19.4223C25.432 19.4784 25.4179 19.6388 25.4999 19.7823C25.5826 19.927 25.7266 19.9945 25.8231 19.9383L26.7479 19.282Z" fill="#FFC300"/>
<path fill-rule="evenodd" clip-rule="evenodd" d="M28.175 18.9491C28.1107 18.9244 28.0237 18.9696 27.9729 19.0588C27.9225 19.1471 27.9263 19.2465 27.9793 19.2905L28.9048 19.9468C29.0013 20.003 29.1455 19.9351 29.2274 19.7917C29.3102 19.6468 29.296 19.487 29.1996 19.4307L28.175 18.9491Z" fill="#FFC300"/>
<path fill-rule="evenodd" clip-rule="evenodd" d="M27.5656 17.8662C27.555 17.9348 27.4726 17.9883 27.3706 17.9883C27.2699 17.9883 27.1868 17.9353 27.1756 17.8669L27.0762 16.7284C27.0762 16.6159 27.2064 16.5234 27.3705 16.5234C27.5357 16.5234 27.6656 16.6159 27.6656 16.7284L27.5656 17.8662Z" fill="#FFC120"/>
<path fill-rule="evenodd" clip-rule="evenodd" d="M28.1796 18.4571C28.1153 18.482 28.0284 18.4369 27.9773 18.3473C27.9271 18.2592 27.9312 18.1599 27.9838 18.1159L28.9094 17.4596C29.0059 17.4035 29.15 17.4712 29.232 17.6147C29.3148 17.7594 29.3005 17.9194 29.2043 17.9757L28.1796 18.4571Z" fill="#FFC300"/>
<path fill-rule="evenodd" clip-rule="evenodd" d="M26.7525 18.1082C26.8059 18.1521 26.8105 18.2509 26.7595 18.3401C26.709 18.4282 26.622 18.4745 26.558 18.4501L25.5329 17.9679C25.4366 17.9117 25.4225 17.7515 25.5045 17.608C25.5873 17.4632 25.7314 17.3957 25.8275 17.4518L26.7525 18.1082Z" fill="#FFC300"/>
<path fill-rule="evenodd" clip-rule="evenodd" d="M5.24268 14.8753L12.0681 14.8293L20.1854 8.73779L28.5451 14.8293L34.7572 14.8753V15.7281L28.4239 15.6821L20.1854 9.71243L12.1893 15.6821L5.24268 15.7281V14.8753Z" fill="#031D43"/>
<rect x="10.8738" y="26.6021" width="1.16505" height="3.8835" fill="#FFC300"/>
<rect x="10.8738" y="26.6021" width="1.16505" height="0.582523" fill="#F9E7A1"/>
<rect x="28.3496" y="26.6021" width="1.16505" height="3.8835" fill="#FFC300"/>
<rect x="28.3496" y="26.6021" width="1.16505" height="0.582523" fill="#F9E7A1"/>
</svg>
